<?xml version="1.0" encoding="utf-8"?>
<!-- Generator: Adobe Illustrator 16.0.4, SVG Export Plug-In . SVG Version: 6.00 Build 0)  -->
<!DOCTYPE svg PUBLIC "-//W3C//DTD SVG 1.1//EN" "http://www.w3.org/Graphics/SVG/1.1/DTD/svg11.dtd">
<svg version="1.1" id="Button" xmlns="http://www.w3.org/2000/svg" xmlns:xlink="http://www.w3.org/1999/xlink" x="0px" y="0px"
	 width="200px" height="60px" viewBox="0 0 200 60" enable-background="new 0 0 200 60" xml:space="preserve">
<g id="Layer_2">
	<g>
		<path fill="#AE1B4D" d="M192.885,60H7.006C3.144,60,0,56.807,0,52.901V7.089C0,3.18,3.144,0,7.006,0h185.879
			C196.744,0,200,3.18,200,7.089v45.812C200,56.807,196.746,60,192.885,60L192.885,60z"/>
		<path d="M198.566,52.901c0,3.175-2.539,5.745-5.682,5.745H7.006c-3.139,0-5.687-2.57-5.687-5.745V7.087
			c0-3.173,2.548-5.752,5.687-5.752h185.879c3.143,0,5.68,2.58,5.68,5.752L198.566,52.901L198.566,52.901z"/>
		<g>
			<g>
				<path fill="#FFFFFF" d="M44.634,29.676c-0.042-4.834,3.91-7.186,4.091-7.296c-2.239-3.305-5.708-3.755-6.928-3.792
					c-2.914-0.311-5.741,1.765-7.225,1.765c-1.514,0-3.8-1.735-6.263-1.685c-3.17,0.05-6.137,1.908-7.763,4.794
					c-3.357,5.884-0.854,14.532,2.363,19.289c1.609,2.331,3.489,4.931,5.95,4.838c2.408-0.099,3.307-1.553,6.211-1.553
					c2.878,0,3.723,1.553,6.233,1.494c2.584-0.041,4.211-2.339,5.764-4.69c1.859-2.67,2.605-5.3,2.635-5.435
					C49.64,37.385,44.683,35.469,44.634,29.676z"/>
				<path fill="#FFFFFF" d="M39.894,15.458c1.295-1.64,2.18-3.87,1.935-6.134c-1.874,0.084-4.217,1.312-5.567,2.916
					c-1.194,1.413-2.261,3.729-1.985,5.907C36.381,18.307,38.542,17.072,39.894,15.458z"/>
			</g>
		</g>
		<g>
			<path fill="#FFFFFF" d="M79.474,47.255h-3.364l-1.843-5.863H67.86l-1.756,5.863h-3.275l6.346-19.962h3.92L79.474,47.255z
				 M73.711,38.932l-1.667-5.212c-0.176-0.532-0.506-1.786-0.994-3.76h-0.059c-0.194,0.849-0.506,2.103-0.936,3.76l-1.637,5.212
				H73.711z"/>
			<path fill="#FFFFFF" d="M95.796,39.882c0,2.449-0.653,4.382-1.96,5.804c-1.17,1.264-2.624,1.896-4.358,1.896
				c-1.873,0-3.218-0.68-4.037-2.042h-0.06v7.582h-3.158V37.6c0-1.539-0.04-3.118-0.118-4.737h2.778l0.176,2.281h0.06
				c1.053-1.719,2.652-2.578,4.797-2.578c1.678,0,3.077,0.671,4.197,2.013C95.236,35.923,95.796,37.69,95.796,39.882z
				 M92.579,39.998c0-1.4-0.312-2.556-0.937-3.466c-0.683-0.945-1.6-1.421-2.75-1.421c-0.779,0-1.487,0.264-2.121,0.785
				c-0.634,0.524-1.049,1.21-1.243,2.06c-0.098,0.396-0.147,0.719-0.147,0.974v2.402c0,1.046,0.318,1.929,0.951,2.651
				c0.635,0.721,1.458,1.081,2.471,1.081c1.19,0,2.116-0.466,2.778-1.392C92.247,42.744,92.579,41.519,92.579,39.998z"/>
			<path fill="#FFFFFF" d="M112.147,39.882c0,2.449-0.654,4.382-1.962,5.804c-1.168,1.264-2.622,1.896-4.358,1.896
				c-1.872,0-3.218-0.68-4.035-2.042h-0.06v7.582h-3.158V37.6c0-1.539-0.04-3.118-0.117-4.737h2.777l0.176,2.281h0.059
				c1.053-1.719,2.651-2.578,4.796-2.578c1.675,0,3.076,0.671,4.199,2.013C111.586,35.923,112.147,37.69,112.147,39.882z
				 M108.929,39.998c0-1.4-0.312-2.556-0.937-3.466c-0.683-0.945-1.598-1.421-2.75-1.421c-0.782,0-1.487,0.264-2.122,0.785
				c-0.633,0.524-1.047,1.21-1.241,2.06c-0.096,0.396-0.147,0.719-0.147,0.974v2.402c0,1.046,0.317,1.929,0.949,2.651
				c0.633,0.72,1.456,1.081,2.474,1.081c1.188,0,2.115-0.466,2.777-1.392C108.597,42.744,108.929,41.519,108.929,39.998z"/>
			<path fill="#FFFFFF" d="M130.429,41.657c0,1.699-0.582,3.081-1.75,4.147c-1.285,1.164-3.072,1.748-5.37,1.748
				c-2.123,0-3.823-0.415-5.111-1.244l0.732-2.665c1.386,0.848,2.908,1.274,4.566,1.274c1.189,0,2.115-0.273,2.781-0.817
				c0.663-0.542,0.993-1.272,0.993-2.18c0-0.81-0.273-1.492-0.818-2.046c-0.545-0.553-1.454-1.067-2.72-1.542
				c-3.452-1.304-5.176-3.214-5.176-5.726c0-1.64,0.604-2.985,1.814-4.033c1.207-1.048,2.816-1.572,4.827-1.572
				c1.793,0,3.284,0.317,4.473,0.948l-0.788,2.608c-1.111-0.612-2.368-0.919-3.775-0.919c-1.11,0-1.978,0.278-2.601,0.831
				c-0.525,0.492-0.789,1.094-0.789,1.808c0,0.788,0.3,1.441,0.904,1.955c0.527,0.473,1.482,0.987,2.87,1.541
				c1.697,0.69,2.941,1.5,3.743,2.426C130.029,39.121,130.429,40.277,130.429,41.657z"/>
			<path fill="#FFFFFF" d="M140.872,35.261h-3.482v6.989c0,1.777,0.614,2.666,1.844,2.666c0.563,0,1.033-0.048,1.402-0.146
				l0.087,2.428c-0.623,0.235-1.441,0.354-2.456,0.354c-1.247,0-2.223-0.386-2.925-1.156c-0.702-0.771-1.054-2.063-1.054-3.88
				v-7.256h-2.075v-2.4h2.075v-2.635l3.101-0.948v3.583h3.482V35.261L140.872,35.261z"/>
			<path fill="#FFFFFF" d="M156.58,39.939c0,2.213-0.625,4.029-1.873,5.449c-1.309,1.462-3.045,2.192-5.209,2.192
				c-2.086,0-3.748-0.701-4.986-2.101c-1.238-1.402-1.858-3.171-1.858-5.301c0-2.232,0.639-4.058,1.916-5.479
				c1.275-1.422,2.998-2.132,5.161-2.132c2.087,0,3.765,0.701,5.032,2.104C155.976,36.031,156.58,37.787,156.58,39.939z
				 M153.301,40.043c0-1.328-0.279-2.466-0.846-3.415c-0.662-1.15-1.61-1.722-2.836-1.722c-1.268,0-2.234,0.575-2.896,1.722
				c-0.569,0.951-0.847,2.107-0.847,3.475c0,1.328,0.279,2.465,0.847,3.414c0.683,1.148,1.637,1.722,2.869,1.722
				c1.206,0,2.153-0.586,2.836-1.751C153.01,42.521,153.301,41.37,153.301,40.043z"/>
			<path fill="#FFFFFF" d="M166.848,35.675c-0.314-0.059-0.646-0.088-0.996-0.088c-1.111,0-1.971,0.423-2.576,1.273
				c-0.525,0.751-0.789,1.698-0.789,2.842v7.553h-3.158l0.029-9.861c0-1.658-0.039-3.17-0.119-4.531h2.752l0.115,2.753h0.088
				c0.334-0.945,0.859-1.71,1.58-2.281c0.703-0.514,1.465-0.771,2.283-0.771c0.293,0,0.555,0.021,0.791,0.059V35.675L166.848,35.675
				z"/>
			<path fill="#FFFFFF" d="M180.973,39.377c0,0.573-0.039,1.056-0.117,1.45h-9.475c0.037,1.422,0.494,2.511,1.375,3.26
				c0.799,0.669,1.83,1.005,3.1,1.005c1.402,0,2.684-0.226,3.834-0.68l0.494,2.22c-1.346,0.594-2.932,0.889-4.768,0.889
				c-2.203,0-3.934-0.655-5.193-1.968c-1.256-1.312-1.887-3.076-1.887-5.285c0-2.17,0.586-3.978,1.758-5.42
				c1.229-1.539,2.887-2.308,4.971-2.308c2.051,0,3.602,0.769,4.654,2.308C180.553,36.07,180.973,37.582,180.973,39.377z
				 M177.961,38.549c0.02-0.949-0.186-1.767-0.613-2.459c-0.549-0.891-1.387-1.334-2.518-1.334c-1.033,0-1.873,0.434-2.516,1.304
				c-0.525,0.69-0.838,1.522-0.934,2.486h6.58V38.549z"/>
		</g>
		<g>
			<g>
				<path fill="#FFFFFF" d="M72.667,15.013c0,1.767-0.523,3.095-1.567,3.988c-0.968,0.823-2.342,1.236-4.123,1.236
					c-0.883,0-1.639-0.04-2.271-0.118v-9.646c0.825-0.135,1.714-0.204,2.674-0.204c1.696,0,2.975,0.374,3.837,1.12
					C72.182,12.234,72.667,13.441,72.667,15.013z M71.029,15.057c0-1.145-0.299-2.022-0.897-2.634
					c-0.598-0.611-1.472-0.917-2.624-0.917c-0.489,0-0.905,0.033-1.25,0.103v7.333c0.191,0.03,0.541,0.044,1.049,0.044
					c1.188,0,2.105-0.334,2.751-1.003C70.704,17.312,71.029,16.337,71.029,15.057z"/>
				<path fill="#FFFFFF" d="M81.347,16.555c0,1.087-0.307,1.979-0.92,2.677c-0.643,0.718-1.496,1.077-2.559,1.077
					c-1.025,0-1.842-0.343-2.45-1.033c-0.608-0.689-0.912-1.557-0.912-2.604c0-1.095,0.312-1.994,0.941-2.691
					c0.627-0.697,1.472-1.047,2.536-1.047c1.025,0,1.849,0.343,2.472,1.032C81.049,14.635,81.347,15.5,81.347,16.555z
					 M79.736,16.606c0-0.652-0.139-1.211-0.416-1.678c-0.327-0.564-0.79-0.847-1.393-0.847c-0.624,0-1.098,0.282-1.424,0.847
					c-0.279,0.466-0.417,1.035-0.417,1.706c0,0.652,0.14,1.212,0.417,1.679c0.336,0.564,0.805,0.846,1.408,0.846
					c0.593,0,1.059-0.286,1.393-0.861C79.592,17.822,79.736,17.258,79.736,16.606z"/>
				<path fill="#FFFFFF" d="M92.985,13.078L90.8,20.149h-1.422l-0.905-3.071c-0.229-0.766-0.417-1.528-0.562-2.285h-0.028
					c-0.135,0.777-0.321,1.539-0.562,2.285l-0.962,3.071h-1.439l-2.055-7.072h1.596l0.789,3.362c0.191,0.795,0.348,1.553,0.474,2.27
					h0.028c0.116-0.591,0.307-1.344,0.576-2.254l0.991-3.375h1.266l0.95,3.303c0.229,0.806,0.416,1.581,0.561,2.328h0.043
					c0.105-0.727,0.263-1.502,0.474-2.328l0.847-3.303h1.525V13.078L92.985,13.078z"/>
				<path fill="#FFFFFF" d="M101.033,20.149h-1.551v-4.051c0-1.248-0.468-1.872-1.407-1.872c-0.461,0-0.833,0.172-1.122,0.515
					c-0.286,0.343-0.431,0.748-0.431,1.211v4.194H94.97v-5.049c0-0.621-0.02-1.294-0.057-2.023h1.364l0.073,1.106h0.042
					c0.181-0.343,0.451-0.626,0.805-0.854c0.421-0.264,0.892-0.397,1.408-0.397c0.652,0,1.193,0.213,1.624,0.64
					c0.539,0.523,0.804,1.305,0.804,2.343V20.149L101.033,20.149z"/>
				<path fill="#FFFFFF" d="M105.316,20.149h-1.551V9.834h1.551V20.149z"/>
				<path fill="#FFFFFF" d="M114.457,16.555c0,1.087-0.307,1.979-0.92,2.677c-0.643,0.718-1.496,1.077-2.558,1.077
					c-1.028,0-1.844-0.343-2.451-1.033c-0.608-0.689-0.912-1.557-0.912-2.604c0-1.095,0.312-1.994,0.94-2.691
					c0.629-0.697,1.473-1.047,2.535-1.047c1.028,0,1.849,0.343,2.475,1.032C114.159,14.635,114.457,15.5,114.457,16.555z
					 M112.844,16.606c0-0.652-0.139-1.211-0.417-1.678c-0.324-0.564-0.789-0.847-1.39-0.847c-0.626,0-1.099,0.282-1.425,0.847
					c-0.279,0.466-0.415,1.035-0.415,1.706c0,0.652,0.141,1.212,0.415,1.679c0.337,0.564,0.806,0.846,1.408,0.846
					c0.594,0,1.056-0.286,1.393-0.861C112.703,17.822,112.844,17.258,112.844,16.606z"/>
				<path fill="#FFFFFF" d="M121.971,20.149h-1.396l-0.116-0.814h-0.042c-0.478,0.65-1.157,0.975-2.041,0.975
					c-0.659,0-1.193-0.214-1.593-0.641c-0.364-0.387-0.546-0.868-0.546-1.44c0-0.863,0.355-1.521,1.071-1.978
					c0.714-0.456,1.717-0.68,3.011-0.669V15.45c0-0.931-0.482-1.396-1.452-1.396c-0.689,0-1.296,0.175-1.82,0.523l-0.315-1.032
					c0.649-0.407,1.45-0.61,2.396-0.61c1.826,0,2.74,0.975,2.74,2.925v2.604C121.87,19.169,121.904,19.732,121.971,20.149z
					 M120.359,17.719v-1.091c-1.713-0.03-2.57,0.445-2.57,1.425c0,0.37,0.099,0.645,0.299,0.829c0.2,0.185,0.454,0.276,0.758,0.276
					c0.341,0,0.659-0.109,0.949-0.327c0.292-0.219,0.471-0.497,0.538-0.837C120.35,17.918,120.359,17.825,120.359,17.719z"/>
				<path fill="#FFFFFF" d="M130.793,20.149h-1.376l-0.072-1.136H129.3c-0.439,0.864-1.188,1.296-2.242,1.296
					c-0.841,0-1.542-0.334-2.098-1.003c-0.555-0.669-0.833-1.538-0.833-2.605c0-1.144,0.302-2.071,0.906-2.778
					c0.584-0.661,1.301-0.991,2.155-0.991c0.938,0,1.594,0.319,1.968,0.96h0.029V9.833h1.554v8.41
					C130.738,18.933,130.755,19.567,130.793,20.149z M129.184,17.167v-1.179c0-0.205-0.014-0.369-0.044-0.495
					c-0.086-0.378-0.274-0.696-0.561-0.953c-0.29-0.256-0.636-0.385-1.039-0.385c-0.579,0-1.033,0.232-1.366,0.699
					c-0.33,0.467-0.498,1.062-0.498,1.791c0,0.699,0.159,1.266,0.477,1.702c0.335,0.465,0.79,0.697,1.357,0.697
					c0.509,0,0.917-0.193,1.226-0.582C129.037,18.103,129.184,17.671,129.184,17.167z"/>
				<path fill="#FFFFFF" d="M144.072,16.555c0,1.087-0.307,1.979-0.92,2.677c-0.643,0.718-1.494,1.077-2.558,1.077
					c-1.025,0-1.841-0.343-2.451-1.033c-0.607-0.689-0.912-1.557-0.912-2.604c0-1.095,0.313-1.994,0.94-2.691
					c0.628-0.697,1.473-1.047,2.538-1.047c1.024,0,1.849,0.343,2.471,1.032C143.774,14.635,144.072,15.5,144.072,16.555z
					 M142.463,16.606c0-0.652-0.139-1.211-0.417-1.678c-0.327-0.564-0.789-0.847-1.395-0.847c-0.623,0-1.096,0.282-1.424,0.847
					c-0.278,0.466-0.416,1.035-0.416,1.706c0,0.652,0.14,1.212,0.416,1.679c0.337,0.564,0.804,0.846,1.409,0.846
					c0.593,0,1.059-0.286,1.395-0.861C142.317,17.822,142.463,17.258,142.463,16.606z"/>
				<path fill="#FFFFFF" d="M152.419,20.149h-1.551v-4.051c0-1.248-0.469-1.872-1.409-1.872c-0.46,0-0.831,0.172-1.119,0.515
					c-0.287,0.343-0.432,0.748-0.432,1.211v4.194h-1.554v-5.049c0-0.621-0.018-1.294-0.055-2.023h1.363l0.073,1.106h0.043
					c0.181-0.343,0.451-0.626,0.804-0.854c0.423-0.264,0.892-0.397,1.41-0.397c0.651,0,1.191,0.213,1.623,0.64
					c0.539,0.523,0.805,1.305,0.805,2.343V20.149L152.419,20.149z"/>
				<path fill="#FFFFFF" d="M162.867,14.255h-1.709v3.436c0,0.873,0.305,1.31,0.904,1.31c0.281,0,0.51-0.024,0.693-0.073
					l0.039,1.192c-0.307,0.118-0.709,0.175-1.207,0.175c-0.611,0-1.088-0.189-1.436-0.567c-0.346-0.378-0.518-1.014-0.518-1.907
					v-3.565h-1.021v-1.178h1.021v-1.296l1.521-0.465v1.759h1.711V14.255L162.867,14.255z"/>
				<path fill="#FFFFFF" d="M171.088,20.149h-1.553v-4.02c0-1.267-0.469-1.902-1.408-1.902c-0.719,0-1.211,0.368-1.48,1.103
					c-0.047,0.155-0.072,0.344-0.072,0.566v4.252h-1.551V9.834h1.551v4.261h0.029c0.488-0.776,1.189-1.163,2.098-1.163
					c0.643,0,1.174,0.213,1.596,0.64c0.527,0.533,0.791,1.325,0.791,2.372V20.149L171.088,20.149z"/>
				<path fill="#FFFFFF" d="M179.566,16.279c0,0.282-0.02,0.52-0.059,0.713h-4.656c0.021,0.699,0.244,1.231,0.676,1.601
					c0.393,0.33,0.9,0.495,1.523,0.495c0.689,0,1.318-0.111,1.883-0.334l0.242,1.092c-0.66,0.291-1.441,0.437-2.344,0.437
					c-1.08,0-1.934-0.322-2.549-0.967c-0.619-0.646-0.926-1.511-0.926-2.596c0-1.067,0.285-1.955,0.863-2.663
					c0.6-0.755,1.414-1.133,2.441-1.133c1.004,0,1.768,0.378,2.283,1.133C179.361,14.655,179.566,15.397,179.566,16.279z
					 M178.084,15.873c0.012-0.466-0.09-0.869-0.301-1.208c-0.27-0.437-0.68-0.655-1.236-0.655c-0.506,0-0.92,0.213-1.234,0.641
					c-0.258,0.341-0.412,0.747-0.461,1.222H178.084z"/>
			</g>
		</g>
	</g>
</g>
</svg>
