<?xml version="1.0" encoding="utf-8"?>
<!-- Generator: Adobe Illustrator 16.0.4, SVG Export Plug-In . SVG Version: 6.00 Build 0)  -->
<!DOCTYPE svg PUBLIC "-//W3C//DTD SVG 1.1//EN" "http://www.w3.org/Graphics/SVG/1.1/DTD/svg11.dtd">
<svg version="1.1" id="Button_1_" xmlns="http://www.w3.org/2000/svg" xmlns:xlink="http://www.w3.org/1999/xlink" x="0px" y="0px"
	 width="200px" height="60px" viewBox="0 0 200 60" enable-background="new 0 0 200 60" xml:space="preserve">
<g id="Layer_2">
	<g>
		<path fill="#AE1B4D" d="M192.885,60H7.006C3.144,60,0,56.808,0,52.901V7.089C0,3.181,3.144,0,7.006,0h185.878
			C196.744,0,200,3.181,200,7.089v45.812C200,56.808,196.746,60,192.885,60L192.885,60z"/>
		<path fill="#AE1B4D" d="M198.566,52.901c0,3.174-2.539,5.746-5.682,5.746H7.006c-3.139,0-5.687-2.572-5.687-5.746V7.088
			c0-3.173,2.548-5.753,5.687-5.753h185.878c3.143,0,5.681,2.58,5.681,5.753L198.566,52.901L198.566,52.901z"/>
		<g>
			<g>
				<path fill="#FFFFFF" d="M44.635,29.676c-0.042-4.833,3.91-7.186,4.091-7.296c-2.239-3.305-5.708-3.755-6.928-3.792
					c-2.913-0.311-5.741,1.765-7.225,1.765c-1.514,0-3.8-1.735-6.263-1.685c-3.171,0.05-6.137,1.908-7.763,4.794
					c-3.357,5.885-0.854,14.532,2.362,19.29c1.609,2.329,3.489,4.93,5.95,4.838c2.408-0.1,3.307-1.554,6.211-1.554
					c2.878,0,3.723,1.554,6.233,1.495c2.584-0.041,4.211-2.34,5.763-4.691c1.859-2.67,2.605-5.3,2.636-5.435
					C49.64,37.385,44.684,35.469,44.635,29.676z"/>
				<path fill="#FFFFFF" d="M39.894,15.459c1.295-1.64,2.181-3.87,1.935-6.134c-1.873,0.084-4.217,1.312-5.567,2.917
					c-1.194,1.413-2.26,3.729-1.985,5.907C36.381,18.308,38.543,17.073,39.894,15.459z"/>
			</g>
		</g>
		<g>
			<path fill="#FFFFFF" d="M79.474,47.255h-3.365l-1.843-5.862h-6.406l-1.756,5.862H62.83l6.346-19.962h3.919L79.474,47.255z
				 M73.711,38.933l-1.667-5.212c-0.176-0.532-0.506-1.787-0.994-3.76h-0.059c-0.194,0.849-0.506,2.102-0.936,3.76l-1.637,5.212
				H73.711z"/>
			<path fill="#FFFFFF" d="M95.796,39.882c0,2.449-0.653,4.382-1.96,5.803c-1.17,1.264-2.624,1.896-4.358,1.896
				c-1.873,0-3.218-0.68-4.037-2.042h-0.06v7.582h-3.158V37.6c0-1.538-0.04-3.118-0.118-4.737h2.778l0.176,2.281h0.06
				c1.053-1.719,2.652-2.578,4.797-2.578c1.677,0,3.077,0.671,4.197,2.013C95.236,35.923,95.796,37.691,95.796,39.882z
				 M92.579,39.999c0-1.4-0.312-2.556-0.937-3.466c-0.683-0.945-1.6-1.422-2.749-1.422c-0.779,0-1.487,0.264-2.121,0.785
				c-0.634,0.523-1.049,1.21-1.243,2.06c-0.097,0.396-0.147,0.719-0.147,0.974v2.402c0,1.047,0.318,1.928,0.952,2.65
				c0.635,0.721,1.458,1.081,2.471,1.081c1.19,0,2.116-0.466,2.778-1.392C92.247,42.745,92.579,41.519,92.579,39.999z"/>
			<path fill="#FFFFFF" d="M112.147,39.882c0,2.449-0.654,4.382-1.962,5.803c-1.168,1.264-2.623,1.896-4.357,1.896
				c-1.872,0-3.218-0.68-4.035-2.042h-0.061v7.582h-3.158V37.6c0-1.538-0.04-3.118-0.117-4.737h2.777l0.175,2.281h0.059
				c1.053-1.719,2.651-2.578,4.796-2.578c1.675,0,3.076,0.671,4.199,2.013C111.586,35.923,112.147,37.691,112.147,39.882z
				 M108.929,39.999c0-1.4-0.312-2.556-0.937-3.466c-0.684-0.945-1.598-1.422-2.75-1.422c-0.782,0-1.487,0.264-2.122,0.785
				c-0.632,0.523-1.046,1.21-1.241,2.06c-0.096,0.396-0.147,0.719-0.147,0.974v2.402c0,1.047,0.316,1.928,0.949,2.65
				c0.633,0.72,1.456,1.081,2.474,1.081c1.188,0,2.116-0.466,2.777-1.392C108.598,42.745,108.929,41.519,108.929,39.999z"/>
			<path fill="#FFFFFF" d="M130.429,41.658c0,1.699-0.581,3.081-1.75,4.146c-1.284,1.164-3.072,1.748-5.37,1.748
				c-2.122,0-3.822-0.414-5.111-1.243l0.733-2.666c1.385,0.848,2.908,1.274,4.565,1.274c1.189,0,2.115-0.273,2.781-0.816
				c0.662-0.542,0.993-1.271,0.993-2.18c0-0.811-0.273-1.493-0.818-2.046c-0.545-0.554-1.454-1.068-2.719-1.542
				c-3.452-1.304-5.177-3.214-5.177-5.726c0-1.64,0.604-2.986,1.814-4.033c1.207-1.049,2.816-1.572,4.827-1.572
				c1.794,0,3.284,0.316,4.473,0.947l-0.788,2.608c-1.112-0.612-2.369-0.918-3.776-0.918c-1.11,0-1.979,0.278-2.601,0.83
				c-0.525,0.493-0.788,1.095-0.788,1.808c0,0.788,0.301,1.442,0.904,1.955c0.526,0.472,1.482,0.987,2.87,1.541
				c1.696,0.691,2.941,1.5,3.744,2.426C130.029,39.121,130.429,40.278,130.429,41.658z"/>
			<path fill="#FFFFFF" d="M140.872,35.261h-3.482v6.989c0,1.778,0.614,2.665,1.844,2.665c0.563,0,1.033-0.048,1.402-0.146
				l0.088,2.427c-0.623,0.235-1.441,0.354-2.457,0.354c-1.247,0-2.222-0.385-2.923-1.156c-0.703-0.771-1.055-2.063-1.055-3.881
				v-7.256h-2.074v-2.4h2.074v-2.635l3.102-0.947v3.582h3.481L140.872,35.261L140.872,35.261z"/>
			<path fill="#FFFFFF" d="M156.58,39.94c0,2.213-0.625,4.028-1.873,5.449c-1.308,1.462-3.045,2.193-5.209,2.193
				c-2.086,0-3.748-0.702-4.985-2.101c-1.238-1.403-1.857-3.172-1.857-5.302c0-2.231,0.638-4.057,1.915-5.479
				c1.274-1.423,2.998-2.132,5.161-2.132c2.087,0,3.765,0.7,5.034,2.103C155.976,36.031,156.58,37.787,156.58,39.94z
				 M153.302,40.043c0-1.328-0.28-2.466-0.847-3.416c-0.662-1.151-1.61-1.721-2.835-1.721c-1.269,0-2.234,0.574-2.896,1.721
				c-0.57,0.95-0.848,2.107-0.848,3.475c0,1.328,0.279,2.465,0.848,3.415c0.682,1.149,1.636,1.722,2.868,1.722
				c1.206,0,2.153-0.586,2.836-1.751C153.01,42.521,153.302,41.371,153.302,40.043z"/>
			<path fill="#FFFFFF" d="M166.847,35.675c-0.312-0.059-0.646-0.087-0.995-0.087c-1.111,0-1.971,0.423-2.577,1.273
				c-0.525,0.752-0.788,1.698-0.788,2.842v7.553h-3.157l0.028-9.861c0-1.658-0.039-3.17-0.119-4.53h2.752l0.116,2.753h0.087
				c0.334-0.945,0.86-1.71,1.58-2.281c0.703-0.514,1.465-0.771,2.283-0.771c0.293,0,0.555,0.021,0.789,0.059L166.847,35.675
				L166.847,35.675z"/>
			<path fill="#FFFFFF" d="M180.972,39.377c0,0.573-0.038,1.056-0.115,1.449h-9.476c0.037,1.423,0.493,2.512,1.374,3.26
				c0.799,0.67,1.832,1.004,3.101,1.004c1.402,0,2.684-0.226,3.833-0.679l0.495,2.221c-1.348,0.593-2.933,0.889-4.768,0.889
				c-2.204,0-3.935-0.656-5.195-1.969c-1.255-1.313-1.885-3.076-1.885-5.285c0-2.17,0.586-3.979,1.758-5.421
				c1.227-1.538,2.886-2.308,4.97-2.308c2.05,0,3.602,0.77,4.654,2.308C180.553,36.07,180.972,37.583,180.972,39.377z
				 M177.961,38.55c0.021-0.949-0.186-1.768-0.613-2.46c-0.547-0.89-1.386-1.334-2.518-1.334c-1.033,0-1.872,0.434-2.515,1.304
				c-0.525,0.691-0.839,1.522-0.935,2.487h6.58V38.55L177.961,38.55z"/>
		</g>
		<g>
			<g>
				<path fill="#FFFFFF" d="M72.667,15.013c0,1.767-0.523,3.095-1.566,3.988c-0.968,0.823-2.342,1.236-4.123,1.236
					c-0.883,0-1.639-0.04-2.271-0.118v-9.646c0.826-0.135,1.715-0.204,2.674-0.204c1.696,0,2.975,0.374,3.837,1.12
					C72.183,12.234,72.667,13.441,72.667,15.013z M71.03,15.057c0-1.145-0.299-2.022-0.898-2.633
					c-0.598-0.611-1.472-0.917-2.624-0.917c-0.489,0-0.905,0.033-1.25,0.103v7.333c0.191,0.03,0.541,0.044,1.049,0.044
					c1.188,0,2.105-0.334,2.751-1.004C70.705,17.313,71.03,16.338,71.03,15.057z"/>
				<path fill="#FFFFFF" d="M81.347,16.556c0,1.087-0.307,1.979-0.92,2.677c-0.643,0.718-1.496,1.078-2.558,1.078
					c-1.025,0-1.842-0.343-2.45-1.033c-0.607-0.689-0.912-1.557-0.912-2.604c0-1.096,0.312-1.993,0.941-2.692
					c0.627-0.697,1.472-1.046,2.536-1.046c1.025,0,1.85,0.343,2.473,1.032C81.049,14.636,81.347,15.5,81.347,16.556z M79.737,16.606
					c0-0.652-0.14-1.211-0.417-1.678c-0.326-0.564-0.79-0.847-1.392-0.847c-0.624,0-1.098,0.282-1.424,0.847
					c-0.279,0.466-0.417,1.034-0.417,1.706c0,0.652,0.14,1.212,0.417,1.679c0.336,0.564,0.805,0.846,1.408,0.846
					c0.593,0,1.059-0.287,1.393-0.861C79.593,17.822,79.737,17.259,79.737,16.606z"/>
				<path fill="#FFFFFF" d="M92.986,13.078l-2.185,7.072h-1.422l-0.905-3.072c-0.229-0.766-0.417-1.528-0.562-2.285h-0.028
					c-0.135,0.777-0.321,1.539-0.562,2.285l-0.962,3.072h-1.439l-2.055-7.072h1.596l0.789,3.362c0.191,0.795,0.348,1.553,0.474,2.27
					h0.028c0.116-0.591,0.307-1.344,0.576-2.255l0.991-3.375h1.265l0.95,3.303c0.229,0.806,0.416,1.581,0.56,2.328h0.043
					c0.105-0.727,0.263-1.502,0.474-2.328l0.847-3.303h1.525V13.078L92.986,13.078z"/>
				<path fill="#FFFFFF" d="M101.033,20.15h-1.551v-4.051c0-1.248-0.468-1.872-1.407-1.872c-0.461,0-0.833,0.172-1.122,0.515
					c-0.286,0.343-0.431,0.748-0.431,1.211v4.194H94.97v-5.049c0-0.621-0.019-1.293-0.056-2.023h1.364l0.073,1.106h0.042
					c0.181-0.343,0.451-0.627,0.804-0.854c0.421-0.264,0.893-0.397,1.408-0.397c0.651,0,1.193,0.213,1.624,0.64
					c0.539,0.523,0.804,1.305,0.804,2.343V20.15L101.033,20.15z"/>
				<path fill="#FFFFFF" d="M105.316,20.15h-1.551V9.834h1.551V20.15z"/>
				<path fill="#FFFFFF" d="M114.457,16.556c0,1.087-0.307,1.979-0.92,2.677c-0.642,0.718-1.496,1.078-2.558,1.078
					c-1.028,0-1.844-0.343-2.45-1.033c-0.608-0.689-0.912-1.557-0.912-2.604c0-1.096,0.312-1.993,0.94-2.692
					c0.628-0.697,1.472-1.046,2.534-1.046c1.028,0,1.85,0.343,2.476,1.032C114.159,14.636,114.457,15.5,114.457,16.556z
					 M112.844,16.606c0-0.652-0.139-1.211-0.416-1.678c-0.324-0.564-0.79-0.847-1.391-0.847c-0.626,0-1.099,0.282-1.425,0.847
					c-0.278,0.466-0.415,1.034-0.415,1.706c0,0.652,0.141,1.212,0.415,1.679c0.337,0.564,0.806,0.846,1.409,0.846
					c0.593,0,1.056-0.287,1.392-0.861C112.703,17.822,112.844,17.259,112.844,16.606z"/>
				<path fill="#FFFFFF" d="M121.971,20.15h-1.395l-0.116-0.814h-0.042c-0.479,0.65-1.158,0.975-2.042,0.975
					c-0.659,0-1.192-0.214-1.593-0.641c-0.363-0.387-0.547-0.868-0.547-1.44c0-0.863,0.355-1.521,1.072-1.978
					c0.713-0.456,1.718-0.68,3.011-0.669V15.45c0-0.931-0.482-1.396-1.451-1.396c-0.69,0-1.297,0.175-1.821,0.522l-0.315-1.032
					c0.648-0.407,1.45-0.61,2.396-0.61c1.826,0,2.739,0.975,2.739,2.925v2.604C121.87,19.17,121.905,19.732,121.971,20.15z
					 M120.36,17.72v-1.091c-1.712-0.03-2.57,0.446-2.57,1.425c0,0.37,0.099,0.645,0.299,0.829c0.199,0.185,0.453,0.276,0.757,0.276
					c0.342,0,0.66-0.109,0.949-0.327c0.292-0.219,0.471-0.497,0.539-0.837C120.35,17.919,120.36,17.826,120.36,17.72z"/>
				<path fill="#FFFFFF" d="M130.793,20.15h-1.376l-0.073-1.136h-0.043c-0.44,0.864-1.189,1.296-2.242,1.296
					c-0.841,0-1.541-0.334-2.097-1.003c-0.556-0.669-0.834-1.538-0.834-2.605c0-1.144,0.302-2.071,0.907-2.778
					c0.584-0.661,1.3-0.991,2.154-0.991c0.938,0,1.593,0.319,1.968,0.96h0.029V9.834h1.554v8.41
					C130.738,18.933,130.755,19.568,130.793,20.15z M129.184,17.167v-1.179c0-0.204-0.014-0.369-0.043-0.495
					c-0.086-0.378-0.274-0.696-0.561-0.953c-0.29-0.257-0.636-0.386-1.038-0.386c-0.578,0-1.033,0.232-1.366,0.699
					c-0.331,0.466-0.497,1.062-0.497,1.791c0,0.699,0.159,1.266,0.477,1.702c0.334,0.465,0.789,0.697,1.357,0.697
					c0.51,0,0.917-0.193,1.226-0.582C129.038,18.104,129.184,17.672,129.184,17.167z"/>
				<path fill="#FFFFFF" d="M144.072,16.556c0,1.087-0.307,1.979-0.92,2.677c-0.642,0.718-1.494,1.078-2.558,1.078
					c-1.024,0-1.84-0.343-2.45-1.033c-0.608-0.689-0.913-1.557-0.913-2.604c0-1.096,0.313-1.993,0.941-2.692
					c0.627-0.697,1.472-1.046,2.538-1.046c1.024,0,1.85,0.343,2.47,1.032C143.774,14.636,144.072,15.5,144.072,16.556z
					 M142.463,16.606c0-0.652-0.139-1.211-0.416-1.678c-0.328-0.564-0.79-0.847-1.396-0.847c-0.622,0-1.096,0.282-1.424,0.847
					c-0.278,0.466-0.416,1.034-0.416,1.706c0,0.652,0.14,1.212,0.416,1.679c0.337,0.564,0.804,0.846,1.409,0.846
					c0.593,0,1.059-0.287,1.395-0.861C142.318,17.822,142.463,17.259,142.463,16.606z"/>
				<path fill="#FFFFFF" d="M152.419,20.15h-1.55v-4.051c0-1.248-0.47-1.872-1.41-1.872c-0.459,0-0.831,0.172-1.119,0.515
					c-0.287,0.343-0.432,0.748-0.432,1.211v4.194h-1.554v-5.049c0-0.621-0.018-1.293-0.055-2.023h1.363l0.072,1.106h0.042
					c0.181-0.343,0.45-0.627,0.804-0.854c0.422-0.264,0.893-0.397,1.409-0.397c0.651,0,1.192,0.213,1.623,0.64
					c0.538,0.523,0.805,1.305,0.805,2.343v4.236H152.419z"/>
				<path fill="#FFFFFF" d="M162.868,14.256h-1.709v3.435c0,0.874,0.303,1.31,0.904,1.31c0.28,0,0.509-0.024,0.692-0.074
					l0.038,1.192c-0.306,0.118-0.707,0.175-1.205,0.175c-0.612,0-1.09-0.188-1.436-0.566c-0.345-0.378-0.518-1.014-0.518-1.907
					v-3.565h-1.021v-1.178h1.021v-1.296l1.521-0.465v1.759h1.711L162.868,14.256L162.868,14.256z"/>
				<path fill="#FFFFFF" d="M171.089,20.15h-1.554v-4.02c0-1.267-0.47-1.902-1.407-1.902c-0.72,0-1.212,0.368-1.481,1.103
					c-0.046,0.154-0.072,0.344-0.072,0.565v4.252h-1.55V9.834h1.55v4.261h0.028c0.49-0.775,1.189-1.163,2.098-1.163
					c0.643,0,1.175,0.213,1.597,0.641c0.526,0.532,0.789,1.325,0.789,2.371v4.205H171.089z"/>
				<path fill="#FFFFFF" d="M179.566,16.279c0,0.282-0.02,0.52-0.058,0.713h-4.656c0.021,0.699,0.244,1.231,0.675,1.6
					c0.393,0.331,0.901,0.495,1.523,0.495c0.689,0,1.318-0.111,1.883-0.334l0.243,1.092c-0.661,0.291-1.441,0.437-2.344,0.437
					c-1.082,0-1.934-0.322-2.549-0.968c-0.62-0.645-0.927-1.51-0.927-2.596c0-1.067,0.287-1.955,0.863-2.663
					c0.602-0.756,1.415-1.133,2.443-1.133c1.002,0,1.768,0.377,2.282,1.133C179.362,14.655,179.566,15.397,179.566,16.279z
					 M178.085,15.874c0.012-0.467-0.091-0.869-0.301-1.208c-0.27-0.437-0.681-0.655-1.237-0.655c-0.506,0-0.921,0.213-1.236,0.641
					c-0.256,0.341-0.411,0.747-0.46,1.223H178.085z"/>
			</g>
		</g>
	</g>
</g>
</svg>
