<?xml version="1.0" encoding="utf-8"?>
<!-- Generator: Adobe Illustrator 16.0.4, SVG Export Plug-In . SVG Version: 6.00 Build 0)  -->
<!DOCTYPE svg PUBLIC "-//W3C//DTD SVG 1.1//EN" "http://www.w3.org/Graphics/SVG/1.1/DTD/svg11.dtd">
<svg version="1.1" id="Button" xmlns="http://www.w3.org/2000/svg" xmlns:xlink="http://www.w3.org/1999/xlink" x="0px" y="0px"
	 width="200px" height="60px" viewBox="0.5 103.5 200 60" enable-background="new 0.5 103.5 200 60" xml:space="preserve">
<g>
	<g>
		<path fill="#AE1B4D" d="M193.095,163.5H7.908c-4.148,0-7.408-3.301-7.408-7.5v-45c0-4.199,3.259-7.5,7.408-7.5h185.187
			c4.147,0,7.405,3.301,7.405,7.5v45C200.5,160.199,197.242,163.5,193.095,163.5z"/>
	</g>
	<g>
		<g>
			<path fill="#AE1B4D" d="M193.095,104.7c3.405,0,6.22,2.851,6.22,6.301V156c0,3.45-2.814,6.301-6.22,6.301H7.908
				c-3.407,0-6.222-2.851-6.222-6.301v-44.999c0-3.45,2.815-6.301,6.222-6.301H193.095 M193.095,103.5H7.908
				c-4.148,0-7.408,3.449-7.408,7.5v45c0,4.199,3.259,7.5,7.408,7.5h185.187c4.147,0,7.405-3.301,7.405-7.5v-45
				C200.5,106.949,197.242,103.5,193.095,103.5L193.095,103.5z"/>
		</g>
	</g>
	<g>
		<path fill="#FFFFFF" stroke="#FFFFFF" stroke-width="0.1291" stroke-miterlimit="10" d="M70.834,118.801
			c0,1.199-0.296,2.249-1.037,3c-0.89,0.898-1.926,1.35-3.26,1.35c-1.333,0-2.37-0.451-3.259-1.35
			c-0.889-0.9-1.333-1.951-1.333-3.301s0.445-2.4,1.333-3.301c0.889-0.899,1.926-1.35,3.259-1.35c0.593,0,1.186,0.15,1.777,0.451
			c0.593,0.3,1.038,0.6,1.334,1.049l-0.741,0.75c-0.592-0.75-1.333-1.049-2.371-1.049c-0.889,0-1.777,0.299-2.37,1.049
			c-0.742,0.601-1.038,1.502-1.038,2.551c0,1.051,0.296,1.95,1.038,2.549c0.741,0.602,1.48,1.051,2.37,1.051
			c1.038,0,1.777-0.301,2.519-1.051c0.444-0.449,0.741-1.05,0.741-1.799h-3.259v-1.199h4.297
			C70.834,118.35,70.834,118.65,70.834,118.801z"/>
		<path fill="#FFFFFF" stroke="#FFFFFF" stroke-width="0.1291" stroke-miterlimit="10" d="M77.649,115.051h-4v2.85h3.705v1.05
			h-3.705v2.851h4V123h-5.186v-9h5.186V115.051z"/>
		<path fill="#FFFFFF" stroke="#FFFFFF" stroke-width="0.1291" stroke-miterlimit="10" d="M82.538,123h-1.186v-7.949h-2.519V114
			h6.222v1.051h-2.518L82.538,123L82.538,123z"/>
		<path fill="#FFFFFF" stroke="#FFFFFF" stroke-width="0.1291" stroke-miterlimit="10" d="M89.353,123v-9h1.185v9H89.353L89.353,123
			z"/>
		<path fill="#FFFFFF" stroke="#FFFFFF" stroke-width="0.1291" stroke-miterlimit="10" d="M95.574,123h-1.185v-7.949h-2.518V114
			h6.074v1.051h-2.519V123H95.574z"/>
		<path fill="#FFFFFF" stroke="#FFFFFF" stroke-width="0.1291" stroke-miterlimit="10" d="M109.648,121.801
			c-0.89,0.898-1.926,1.35-3.259,1.35s-2.37-0.451-3.26-1.35c-0.888-0.9-1.332-1.951-1.332-3.301s0.444-2.4,1.332-3.301
			c0.89-0.899,1.927-1.35,3.26-1.35s2.37,0.451,3.259,1.35c0.888,0.9,1.332,1.951,1.332,3.301
			C110.982,119.85,110.537,120.9,109.648,121.801z M104.019,121.051c0.592,0.6,1.482,1.05,2.37,1.05c0.89,0,1.776-0.3,2.37-1.05
			c0.593-0.6,1.036-1.5,1.036-2.55c0-1.052-0.295-1.95-1.036-2.55c-0.593-0.601-1.481-1.051-2.37-1.051s-1.778,0.299-2.37,1.051
			c-0.593,0.6-1.038,1.499-1.038,2.55C102.981,119.551,103.279,120.45,104.019,121.051z"/>
		<path fill="#FFFFFF" stroke="#FFFFFF" stroke-width="0.1291" stroke-miterlimit="10" d="M112.611,123v-9h1.334l4.296,7.051l0,0
			v-1.801V114h1.184v9h-1.184l-4.592-7.35l0,0v1.799V123H112.611L112.611,123z"/>
	</g>
	<path fill="#FFFFFF" d="M101.501,136.2c-3.557,0-6.371,2.698-6.371,6.448c0,3.603,2.815,6.451,6.371,6.451
		c3.554,0,6.37-2.701,6.37-6.451C107.872,138.752,105.056,136.2,101.501,136.2z M101.501,146.398c-1.927,0-3.557-1.65-3.557-3.896
		c0-2.253,1.63-3.902,3.557-3.902c1.925,0,3.554,1.501,3.554,3.902C105.056,144.748,103.426,146.398,101.501,146.398z M87.723,136.2
		c-3.556,0-6.37,2.698-6.37,6.448c0,3.603,2.814,6.451,6.37,6.451c3.556,0,6.371-2.701,6.371-6.451
		C94.093,138.752,91.279,136.2,87.723,136.2z M87.723,146.398c-1.926,0-3.556-1.65-3.556-3.896c0-2.253,1.63-3.902,3.556-3.902
		c1.926,0,3.556,1.501,3.556,3.902C91.279,144.748,89.649,146.398,87.723,146.398z M71.278,138.15v2.699h6.371
		c-0.148,1.5-0.74,2.7-1.481,3.45c-0.889,0.897-2.371,1.949-4.889,1.949c-4,0-6.963-3.149-6.963-7.198
		c0-4.05,3.111-7.201,6.963-7.201c2.074,0,3.704,0.9,4.889,1.951l1.925-1.951c-1.629-1.5-3.704-2.699-6.667-2.699
		c-5.332,0-9.926,4.5-9.926,9.9c0,5.399,4.594,9.898,9.926,9.898c2.963,0,5.038-0.899,6.815-2.851
		c1.777-1.799,2.371-4.348,2.371-6.298c0-0.602,0-1.201-0.148-1.65H71.278L71.278,138.15z M138.538,140.249
		c-0.592-1.499-2.075-4.05-5.332-4.05c-3.261,0-5.927,2.551-5.927,6.449c0,3.601,2.667,6.45,6.223,6.45
		c2.813,0,4.591-1.799,5.184-2.85l-2.075-1.501c-0.738,1.05-1.626,1.801-3.109,1.801s-2.37-0.6-3.112-1.952l8.443-3.599
		L138.538,140.249z M129.945,142.35c0-2.4,1.925-3.75,3.261-3.75c1.034,0,2.071,0.6,2.369,1.35L129.945,142.35z M122.981,148.5
		h2.815v-18.75h-2.815V148.5z M118.539,137.551L118.539,137.551c-0.742-0.75-1.926-1.5-3.409-1.5c-3.111,0-6.073,2.848-6.073,6.449
		c0,3.599,2.814,6.3,6.073,6.3c1.483,0,2.667-0.75,3.26-1.5h0.149v0.899c0,2.4-1.334,3.749-3.409,3.749
		c-1.63,0-2.815-1.2-3.111-2.249l-2.371,1.049c0.742,1.651,2.518,3.751,5.63,3.751c3.26,0,5.925-1.949,5.925-6.601V136.5h-2.665
		V137.551L118.539,137.551z M115.279,146.398c-1.928,0-3.557-1.65-3.557-3.896c0-2.253,1.629-3.902,3.557-3.902
		c1.926,0,3.406,1.649,3.406,3.902C118.685,144.748,117.205,146.398,115.279,146.398z M151.425,129.75h-6.665v18.75h2.814v-7.051
		h3.853c3.111,0,6.075-2.25,6.075-5.85C157.5,132.001,154.539,129.75,151.425,129.75z M151.575,138.752h-4V132.3h4
		c2.073,0,3.259,1.8,3.259,3.149C154.686,137.1,153.501,138.752,151.575,138.752z M168.611,136.051
		c-2.074,0-4.146,0.898-4.889,2.848l2.52,1.052c0.592-1.052,1.48-1.351,2.518-1.351c1.482,0,2.814,0.9,2.963,2.4v0.15
		c-0.443-0.301-1.627-0.75-2.814-0.75c-2.666,0-5.332,1.5-5.332,4.199c0,2.549,2.221,4.201,4.592,4.201
		c1.928,0,2.814-0.9,3.555-1.801h0.148v1.5h2.664v-7.2C174.24,138,171.723,136.051,168.611,136.051z M168.314,146.398
		c-0.887,0-2.221-0.448-2.221-1.65c0-1.5,1.627-1.948,2.963-1.948c1.184,0,1.779,0.3,2.518,0.6
		C171.279,145.199,169.797,146.398,168.314,146.398z M183.871,136.5l-3.111,8.099h-0.146l-3.262-8.099h-2.961l4.887,11.398
		l-2.814,6.301h2.814l7.557-17.699H183.871z M158.982,148.5h2.812v-18.75h-2.812V148.5z"/>
	<g>
		
			<linearGradient id="SVGID_1_" gradientUnits="userSpaceOnUse" x1="244.2793" y1="-86.5654" x2="233.4473" y2="-97.3973" gradientTransform="matrix(2.3097 0 0 -2.3097 -531.3755 -83.2214)">
			<stop  offset="0" style="stop-color:#00A0FF"/>
			<stop  offset="0.0066" style="stop-color:#00A1FF"/>
			<stop  offset="0.2601" style="stop-color:#00BEFF"/>
			<stop  offset="0.5122" style="stop-color:#00D2FF"/>
			<stop  offset="0.7604" style="stop-color:#00DFFF"/>
			<stop  offset="1" style="stop-color:#00E3FF"/>
		</linearGradient>
		<path fill="url(#SVGID_1_)" d="M15.908,114.75c-0.444,0.449-0.592,1.201-0.592,2.101V150c0,0.9,0.297,1.649,0.74,2.101
			l0.148,0.149l18.37-18.6v-0.15v-0.15L15.908,114.75L15.908,114.75z"/>
		
			<linearGradient id="SVGID_2_" gradientUnits="userSpaceOnUse" x1="251.9805" y1="-93.8628" x2="236.4606" y2="-93.8628" gradientTransform="matrix(2.3097 0 0 -2.3097 -531.3755 -83.2214)">
			<stop  offset="0" style="stop-color:#FFE000"/>
			<stop  offset="0.4087" style="stop-color:#FFBD00"/>
			<stop  offset="0.7754" style="stop-color:#FFA500"/>
			<stop  offset="1" style="stop-color:#FF9C00"/>
		</linearGradient>
		<path fill="url(#SVGID_2_)" d="M40.501,139.95l-6.075-6.149V133.5v-0.15l6.075-6.149l0.147,0.149l7.26,4.199
			c2.074,1.201,2.074,3.151,0,4.351L40.501,139.95L40.501,139.95z"/>
		
			<linearGradient id="SVGID_3_" gradientUnits="userSpaceOnUse" x1="246.2041" y1="-95.3047" x2="231.5149" y2="-109.994" gradientTransform="matrix(2.3097 0 0 -2.3097 -531.3755 -83.2214)">
			<stop  offset="0" style="stop-color:#FF3A44"/>
			<stop  offset="1" style="stop-color:#C31162"/>
		</linearGradient>
		<path fill="url(#SVGID_3_)" d="M40.649,139.801l-6.223-6.301l-18.519,18.75c0.741,0.75,1.777,0.75,3.111,0.149L40.649,139.801"/>
		
			<linearGradient id="SVGID_4_" gradientUnits="userSpaceOnUse" x1="234.8916" y1="-81.0449" x2="241.4502" y2="-87.6035" gradientTransform="matrix(2.3097 0 0 -2.3097 -531.3755 -83.2214)">
			<stop  offset="0" style="stop-color:#32A071"/>
			<stop  offset="0.0685" style="stop-color:#2DA771"/>
			<stop  offset="0.4762" style="stop-color:#15CF74"/>
			<stop  offset="0.8009" style="stop-color:#06E775"/>
			<stop  offset="1" style="stop-color:#00F076"/>
		</linearGradient>
		<path fill="url(#SVGID_4_)" d="M40.649,127.2l-21.63-12.45c-1.333-0.75-2.37-0.6-3.111,0.15l18.519,18.6L40.649,127.2z"/>
		<g>
			<path opacity="0.2" enable-background="new    " d="M40.501,139.65l-21.482,12.299c-1.185,0.751-2.221,0.601-2.962,0l0,0
				l-0.148,0.151l0,0l0.148,0.149l0,0c0.741,0.6,1.777,0.75,2.962,0L40.501,139.65L40.501,139.65z"/>
			<path opacity="0.12" enable-background="new    " d="M15.908,151.949c-0.444-0.45-0.592-1.201-0.592-2.1V150
				c0,0.9,0.297,1.649,0.74,2.1v-0.15H15.908z"/>
		</g>
		<path opacity="0.12" enable-background="new    " d="M47.909,135.449l-7.407,4.201l0.147,0.15l7.26-4.201
			c1.037-0.599,1.48-1.35,1.48-2.1l0,0C49.389,134.25,48.797,134.85,47.909,135.449z"/>
		<path opacity="0.25" fill="#FFFFFF" enable-background="new    " d="M19.019,114.9l28.889,16.648
			c0.889,0.601,1.481,1.201,1.481,1.951l0,0c0-0.75-0.444-1.499-1.481-2.101L19.019,114.75c-2.074-1.199-3.703-0.299-3.703,2.101
			v0.15C15.315,114.75,16.945,113.699,19.019,114.9z"/>
	</g>
</g>
</svg>
