<?xml version="1.0" encoding="utf-8"?>
<!-- Generator: Adobe Illustrator 16.0.4, SVG Export Plug-In . SVG Version: 6.00 Build 0)  -->
<!DOCTYPE svg PUBLIC "-//W3C//DTD SVG 1.1//EN" "http://www.w3.org/Graphics/SVG/1.1/DTD/svg11.dtd">
<svg version="1.1" id="Button" xmlns="http://www.w3.org/2000/svg" xmlns:xlink="http://www.w3.org/1999/xlink" x="0px" y="0px"
	 width="200px" height="60px" viewBox="0 0 200 60" enable-background="new 0 0 200 60" xml:space="preserve">
<g>
	<g>
		<path d="M192.595,60H7.408C3.26,60,0,56.7,0,52.5v-45C0,3.3,3.259,0,7.408,0h185.187C196.742,0,200,3.301,200,7.5v45
			C200,56.7,196.742,60,192.595,60z"/>
	</g>
	<g>
		<g>
			<path fill="#AE1B4D" d="M192.595,1.2c3.405,0,6.221,2.85,6.221,6.3v45c0,3.451-2.815,6.301-6.221,6.301H7.408
				c-3.407,0-6.222-2.85-6.222-6.301v-45c0-3.45,2.815-6.3,6.222-6.3H192.595 M192.595,0H7.408C3.26,0,0,3.45,0,7.5v45
				C0,56.7,3.259,60,7.408,60h185.187c4.147,0,7.405-3.3,7.405-7.5v-45C200,3.45,196.742,0,192.595,0L192.595,0z"/>
		</g>
	</g>
	<g>
		<path fill="#FFFFFF" stroke="#FFFFFF" stroke-width="0.1291" stroke-miterlimit="10" d="M70.334,15.3c0,1.2-0.296,2.249-1.037,3
			c-0.889,0.9-1.926,1.35-3.259,1.35c-1.333,0-2.371-0.451-3.259-1.35c-0.889-0.9-1.333-1.951-1.333-3.3s0.444-2.4,1.333-3.301
			c0.889-0.899,1.926-1.349,3.259-1.349c0.592,0,1.185,0.149,1.777,0.45c0.592,0.3,1.037,0.6,1.333,1.05l-0.741,0.75
			c-0.592-0.75-1.333-1.05-2.37-1.05c-0.89,0-1.778,0.3-2.371,1.05c-0.741,0.6-1.037,1.501-1.037,2.55c0,1.05,0.296,1.95,1.037,2.55
			c0.741,0.6,1.481,1.05,2.371,1.05c1.037,0,1.777-0.3,2.519-1.05c0.444-0.45,0.741-1.051,0.741-1.799h-3.259v-1.2h4.297
			C70.334,14.85,70.334,15.15,70.334,15.3z"/>
		<path fill="#FFFFFF" stroke="#FFFFFF" stroke-width="0.1291" stroke-miterlimit="10" d="M77.149,11.55h-4v2.85h3.704v1.05h-3.704
			v2.851h4v1.2h-5.186V10.5h5.186V11.55z"/>
		<path fill="#FFFFFF" stroke="#FFFFFF" stroke-width="0.1291" stroke-miterlimit="10" d="M82.038,19.5h-1.186v-7.95h-2.519V10.5
			h6.223v1.051h-2.518L82.038,19.5L82.038,19.5z"/>
		<path fill="#FFFFFF" stroke="#FFFFFF" stroke-width="0.1291" stroke-miterlimit="10" d="M88.853,19.5v-9h1.186v9.001L88.853,19.5
			L88.853,19.5z"/>
		<path fill="#FFFFFF" stroke="#FFFFFF" stroke-width="0.1291" stroke-miterlimit="10" d="M95.074,19.5h-1.185v-7.95h-2.519V10.5
			h6.074v1.051h-2.519v7.95H95.074z"/>
		<path fill="#FFFFFF" stroke="#FFFFFF" stroke-width="0.1291" stroke-miterlimit="10" d="M109.149,18.3
			c-0.89,0.9-1.927,1.35-3.26,1.35c-1.333,0-2.37-0.451-3.26-1.35c-0.888-0.9-1.332-1.951-1.332-3.3s0.444-2.4,1.332-3.301
			c0.891-0.899,1.927-1.349,3.26-1.349c1.333,0,2.37,0.45,3.26,1.349c0.888,0.9,1.332,1.951,1.332,3.301
			C110.482,16.35,110.037,17.4,109.149,18.3z M103.519,17.55c0.592,0.6,1.482,1.05,2.37,1.05c0.89,0,1.777-0.3,2.37-1.05
			c0.594-0.6,1.037-1.5,1.037-2.55c0-1.05-0.295-1.95-1.037-2.55c-0.593-0.6-1.481-1.05-2.37-1.05c-0.888,0-1.778,0.3-2.37,1.05
			c-0.592,0.6-1.038,1.5-1.038,2.55C102.481,16.05,102.779,16.95,103.519,17.55z"/>
		<path fill="#FFFFFF" stroke="#FFFFFF" stroke-width="0.1291" stroke-miterlimit="10" d="M112.111,19.5v-9h1.333l4.297,7.05l0,0
			v-1.8V10.5h1.184v9h-1.184l-4.592-7.35l0,0v1.799v5.55L112.111,19.5L112.111,19.5z"/>
	</g>
	<path fill="#FFFFFF" d="M101.001,32.7c-3.556,0-6.371,2.699-6.371,6.449c0,3.602,2.815,6.45,6.371,6.45c3.555,0,6.37-2.7,6.37-6.45
		C107.371,35.251,104.556,32.7,101.001,32.7z M101.001,42.899c-1.926,0-3.556-1.651-3.556-3.898c0-2.251,1.63-3.901,3.556-3.901
		c1.926,0,3.555,1.501,3.555,3.901C104.556,41.249,102.927,42.899,101.001,42.899z M87.223,32.7c-3.556,0-6.371,2.699-6.371,6.449
		c0,3.602,2.815,6.45,6.371,6.45c3.555,0,6.371-2.7,6.371-6.45C93.593,35.251,90.778,32.7,87.223,32.7z M87.223,42.899
		c-1.926,0-3.556-1.651-3.556-3.898c0-2.251,1.629-3.901,3.556-3.901c1.926,0,3.555,1.501,3.555,3.901
		C90.778,41.249,89.149,42.899,87.223,42.899z M70.778,34.65v2.699h6.371c-0.148,1.5-0.74,2.7-1.481,3.451
		c-0.889,0.899-2.371,1.95-4.889,1.95c-4,0-6.963-3.15-6.963-7.199s3.112-7.201,6.963-7.201c2.074,0,3.704,0.9,4.889,1.951
		l1.925-1.951c-1.629-1.5-3.704-2.7-6.667-2.7c-5.333,0-9.926,4.5-9.926,9.9c0,5.399,4.593,9.9,9.926,9.9
		c2.963,0,5.037-0.9,6.815-2.851c1.777-1.799,2.371-4.349,2.371-6.298c0-0.601,0-1.202-0.148-1.651H70.778L70.778,34.65z
		 M138.038,36.75c-0.592-1.5-2.074-4.05-5.332-4.05c-3.26,0-5.927,2.55-5.927,6.449c0,3.602,2.667,6.451,6.223,6.451
		c2.814,0,4.592-1.799,5.185-2.849l-2.075-1.502c-0.739,1.051-1.627,1.801-3.11,1.801c-1.481,0-2.37-0.6-3.111-1.951l8.444-3.601
		L138.038,36.75z M129.445,38.849c0-2.4,1.926-3.75,3.26-3.75c1.035,0,2.072,0.6,2.37,1.35L129.445,38.849z M122.481,45h2.816V26.25
		h-2.816V45z M118.038,34.05L118.038,34.05c-0.741-0.75-1.925-1.5-3.408-1.5c-3.111,0-6.074,2.849-6.074,6.449
		c0,3.6,2.815,6.3,6.074,6.3c1.482,0,2.667-0.75,3.259-1.5h0.149v0.899c0,2.401-1.333,3.75-3.408,3.75
		c-1.63,0-2.816-1.199-3.111-2.249l-2.37,1.05c0.741,1.65,2.518,3.75,5.63,3.75c3.259,0,5.924-1.95,5.924-6.6V33h-2.666V34.05
		L118.038,34.05z M114.779,42.899c-1.928,0-3.557-1.651-3.557-3.898c0-2.251,1.629-3.901,3.557-3.901
		c1.926,0,3.405,1.649,3.405,3.901C118.185,41.249,116.705,42.899,114.779,42.899z M150.926,26.25h-6.666V45h2.814v-7.05h3.853
		c3.111,0,6.075-2.25,6.075-5.851C157,28.5,154.039,26.25,150.926,26.25z M151.075,35.251h-4V28.8h4c2.074,0,3.259,1.8,3.259,3.15
		C154.186,33.601,153.002,35.251,151.075,35.251z M168.111,32.551c-2.074,0-4.146,0.899-4.889,2.849l2.52,1.051
		c0.592-1.051,1.48-1.35,2.518-1.35c1.482,0,2.816,0.9,2.963,2.4v0.151c-0.443-0.3-1.629-0.75-2.814-0.75
		c-2.666,0-5.332,1.5-5.332,4.2c0,2.549,2.221,4.2,4.592,4.2c1.926,0,2.814-0.9,3.555-1.8h0.148V45h2.666v-7.2
		C173.74,34.5,171.223,32.551,168.111,32.551z M167.814,42.899c-0.889,0-2.221-0.449-2.221-1.651c0-1.5,1.629-1.948,2.963-1.948
		c1.184,0,1.777,0.299,2.518,0.6C170.779,41.7,169.297,42.899,167.814,42.899z M183.371,33l-3.111,8.1h-0.146l-3.262-8.1h-2.961
		l4.887,11.399l-2.814,6.301h2.814L186.336,33H183.371z M158.482,45h2.814V26.25h-2.814V45z"/>
	<g>
		
			<linearGradient id="SVGID_1_" gradientUnits="userSpaceOnUse" x1="244.0635" y1="-41.7544" x2="233.2315" y2="-52.5863" gradientTransform="matrix(2.3097 0 0 -2.3097 -531.3755 -83.2214)">
			<stop  offset="0" style="stop-color:#00A0FF"/>
			<stop  offset="0.0066" style="stop-color:#00A1FF"/>
			<stop  offset="0.2601" style="stop-color:#00BEFF"/>
			<stop  offset="0.5122" style="stop-color:#00D2FF"/>
			<stop  offset="0.7604" style="stop-color:#00DFFF"/>
			<stop  offset="1" style="stop-color:#00E3FF"/>
		</linearGradient>
		<path fill="url(#SVGID_1_)" d="M15.408,11.25c-0.444,0.45-0.592,1.2-0.592,2.1V46.5c0,0.901,0.296,1.651,0.74,2.101l0.148,0.149
			l18.371-18.6V30v-0.15L15.408,11.25L15.408,11.25z"/>
		
			<linearGradient id="SVGID_2_" gradientUnits="userSpaceOnUse" x1="251.7637" y1="-49.0518" x2="236.2461" y2="-49.0518" gradientTransform="matrix(2.3097 0 0 -2.3097 -531.3755 -83.2214)">
			<stop  offset="0" style="stop-color:#FFE000"/>
			<stop  offset="0.4087" style="stop-color:#FFBD00"/>
			<stop  offset="0.7754" style="stop-color:#FFA500"/>
			<stop  offset="1" style="stop-color:#FF9C00"/>
		</linearGradient>
		<path fill="url(#SVGID_2_)" d="M40.001,36.45l-6.075-6.15V30v-0.15l6.075-6.15l0.148,0.15l7.259,4.199
			c2.074,1.201,2.074,3.151,0,4.351L40.001,36.45L40.001,36.45z"/>
		
			<linearGradient id="SVGID_3_" gradientUnits="userSpaceOnUse" x1="245.9883" y1="-50.4941" x2="231.3003" y2="-65.1822" gradientTransform="matrix(2.3097 0 0 -2.3097 -531.3755 -83.2214)">
			<stop  offset="0" style="stop-color:#FF3A44"/>
			<stop  offset="1" style="stop-color:#C31162"/>
		</linearGradient>
		<path fill="url(#SVGID_3_)" d="M40.149,36.301L33.926,30L15.408,48.75c0.741,0.751,1.778,0.751,3.111,0.149L40.149,36.301"/>
		
			<linearGradient id="SVGID_4_" gradientUnits="userSpaceOnUse" x1="234.6758" y1="-36.2334" x2="241.2344" y2="-42.792" gradientTransform="matrix(2.3097 0 0 -2.3097 -531.3755 -83.2214)">
			<stop  offset="0" style="stop-color:#32A071"/>
			<stop  offset="0.0685" style="stop-color:#2DA771"/>
			<stop  offset="0.4762" style="stop-color:#15CF74"/>
			<stop  offset="0.8009" style="stop-color:#06E775"/>
			<stop  offset="1" style="stop-color:#00F076"/>
		</linearGradient>
		<path fill="url(#SVGID_4_)" d="M40.149,23.7l-21.63-12.45c-1.333-0.75-2.37-0.6-3.111,0.15L33.926,30L40.149,23.7z"/>
		<g>
			<path opacity="0.2" enable-background="new    " d="M40.001,36.15L18.52,48.449c-1.186,0.751-2.222,0.602-2.963,0l0,0
				l-0.148,0.151l0,0l0.148,0.149l0,0c0.741,0.6,1.777,0.751,2.963,0L40.001,36.15L40.001,36.15z"/>
			<path opacity="0.12" enable-background="new    " d="M15.408,48.449c-0.444-0.45-0.592-1.2-0.592-2.099V46.5
				c0,0.9,0.296,1.65,0.74,2.1v-0.15H15.408z"/>
		</g>
		<path opacity="0.12" enable-background="new    " d="M47.408,31.95l-7.407,4.2l0.148,0.151l7.259-4.201
			C48.446,31.501,48.89,30.75,48.89,30l0,0C48.89,30.75,48.297,31.35,47.408,31.95z"/>
		<path opacity="0.25" fill="#FFFFFF" enable-background="new    " d="M18.519,11.4l28.889,16.649
			c0.889,0.6,1.481,1.201,1.481,1.951l0,0c0-0.75-0.444-1.5-1.481-2.101L18.519,11.25c-2.074-1.2-3.703-0.3-3.703,2.1v0.15
			C14.815,11.25,16.445,10.2,18.519,11.4z"/>
	</g>
</g>
</svg>
